<svg id="Слой_1" data-name="Слой 1" xmlns="http://www.w3.org/2000/svg" viewBox="0 0 26 26"><defs><style>.cls-1{fill:none;stroke:#000;stroke-linecap:round;stroke-miterlimit:10;stroke-width:2px;}</style></defs><path d="M19.84,11.39H17.12a.5.5,0,0,0,0-.12V4.84A2.54,2.54,0,0,0,14.6,2.31H11.35A2.54,2.54,0,0,0,8.81,4.84v6.43a.5.5,0,0,0,0,.12H6.16a.57.57,0,0,0-.41,1l6.84,7a.57.57,0,0,0,.82,0l6.84-7A.57.57,0,0,0,19.84,11.39Z"/><path class="cls-1" d="M2.93,18v2.6A2.37,2.37,0,0,0,5.3,23H20.7a2.37,2.37,0,0,0,2.37-2.36V18"/></svg>