<svg id="Слой_1" data-name="Слой 1" xmlns="http://www.w3.org/2000/svg" viewBox="0 0 26 26"><defs><style>.cls-1{fill:none;stroke:#000;stroke-linecap:round;stroke-linejoin:round;stroke-width:2px;}</style></defs><path class="cls-1" d="M10.5,2.31H5.39A2.46,2.46,0,0,0,2.93,4.77V20.6A2.37,2.37,0,0,0,5.27,23H20.7a2.37,2.37,0,0,0,2.37-2.36V14.8"/><path d="M24.07,9.49v-7A1.17,1.17,0,0,0,22.9,1.27h-7a1.17,1.17,0,0,0-.84,2l1,1-6,6a1.71,1.71,0,0,0,0,2.42l2.57,2.57a1.71,1.71,0,0,0,2.41,0l6-6,1,1A1.16,1.16,0,0,0,24.07,9.49Z"/></svg>