<svg id="Слой_1" data-name="Слой 1" xmlns="http://www.w3.org/2000/svg" viewBox="0 0 26 26"><defs><style>.cls-1{fill:none;stroke:#070707;stroke-linecap:round;stroke-miterlimit:10;stroke-width:3px;}</style></defs><path d="M1.45,12.55l3.81,3.81a.89.89,0,0,0,1.28,0l3.78-3.78a.9.9,0,0,0-.63-1.53H8.6V4.57A1.31,1.31,0,0,0,7.29,3.26H4.5A1.31,1.31,0,0,0,3.19,4.57v6.48H2.12A.9.9,0,0,0,1.45,12.55Z"/><line class="cls-1" x1="15.14" y1="4.77" x2="23.61" y2="4.77"/><line class="cls-1" x1="15.14" y1="10.34" x2="23.61" y2="10.34"/><line class="cls-1" x1="12.35" y1="15.92" x2="23.61" y2="15.92"/><line class="cls-1" x1="2.7" y1="21.49" x2="23.61" y2="21.49"/></svg>